<svg width="24" height="25" viewBox="0 0 24 25" fill="none" xmlns="http://www.w3.org/2000/svg">
<path d="M3 16.5C3 16.1833 3.1 15.9417 3.3 15.775C3.5 15.6083 3.73333 15.525 4 15.525C4.26667 15.525 4.5 15.6083 4.7 15.775C4.9 15.9417 5 16.1833 5 16.5V17.5C5 18.1167 5.175 18.6083 5.525 18.975C5.89167 19.325 6.38333 19.5 7 19.5H17C17.6167 19.5 18.1 19.325 18.45 18.975C18.8167 18.6083 19 18.1167 19 17.5V16.5C19 16.0833 19.1667 15.8 19.5 15.65C19.8333 15.4833 20.1667 15.4833 20.5 15.65C20.8333 15.8 21 16.0833 21 16.5V17.5C21 18.2167 20.8167 18.8833 20.45 19.5C20.1 20.1167 19.6167 20.6083 19 20.975C18.3833 21.325 17.7167 21.5 17 21.5H7C6.28333 21.5 5.61667 21.325 5 20.975C4.38333 20.6083 3.89167 20.1167 3.525 19.5C3.175 18.8833 3 18.2167 3 17.5V16.5ZM12 15.075L15.3 11.8C15.6 11.5 15.9167 11.4083 16.25 11.525C16.6 11.6417 16.8333 11.8833 16.95 12.25C17.0667 12.6 16.9833 12.9167 16.7 13.2L12.725 17.2C12.5083 17.4167 12.2667 17.525 12 17.525C11.7333 17.525 11.4917 17.4167 11.275 17.2L7.3 13.2C7 12.9 6.90833 12.5833 7.025 12.25C7.14167 11.9 7.375 11.6667 7.725 11.55C8.09167 11.4333 8.41667 11.5167 8.7 11.8L12 15.075ZM11 4.5C11 4.08333 11.1667 3.8 11.5 3.65C11.8333 3.48333 12.1667 3.48333 12.5 3.65C12.8333 3.8 13 4.08333 13 4.5V16.5H11V4.5Z" fill="white"/>
</svg>
