<svg width="40" height="37" viewBox="0 0 40 37" fill="none" xmlns="http://www.w3.org/2000/svg">
<path d="M6.82946 27.3842C5.22908 23.8701 5.10135 20.4285 6.43911 16.7481C7.31431 14.3403 8.87304 11.9813 10.6922 10.1669C12.7122 8.15226 15.2394 6.56389 17.7084 5.16341C19.3907 4.20913 21.1076 3.48055 23.0699 3.98774C29.6949 5.70007 28.6795 13.003 27.3258 18.1031C27.1874 18.6245 26.777 18.4456 26.3326 18.4742C25.6874 18.5156 25.0616 18.7668 24.6242 19.2596C23.2977 20.7543 21.7855 29.1509 25.4772 28.7452C26.9634 28.5819 29.076 27.6244 30.1429 26.6153C31.2259 25.5909 31.5018 23.8227 31.8976 22.4803C32.2775 21.1921 32.2747 19.5371 30.6626 19.2308C30.4031 19.1815 30.1373 19.2137 29.8755 19.2074C29.6949 19.2031 30.6891 17.9952 30.7633 17.8996C31.4607 16.9999 31.4349 15.9962 31.4729 14.8933C31.552 12.5976 31.8109 9.70365 31.11 7.51645C30.6828 6.18326 30.3328 5.03254 28.8259 4.64778C28.1784 4.48248 26.9346 4.79993 26.437 4.45047" stroke="#6B5743" stroke-width="3" stroke-linecap="round"/>
<path d="M14.5712 7.97638C12.2719 11.7292 9.80801 15.2444 8.97699 19.5528C8.84886 20.2171 8.59054 21.7858 9.45552 20.8041C9.93865 20.2558 10.8769 18.8619 11.7141 19.1946C12.7054 19.5884 13.0843 20.5531 13.5514 21.423C14.7319 23.6219 13.3891 27.2226 11.5229 28.8228C11.1966 29.1025 10.7986 29.2986 10.4189 29.4948C9.5907 29.9229 9.22005 29.1186 8.76058 28.49C8.42394 28.0294 7.65774 27.2387 7.78692 26.5818C7.98618 25.5684 8.50381 24.6363 8.91242 23.6954" stroke="#6B5743" stroke-width="3" stroke-linecap="round"/>
</svg>
