<svg width="28" height="30" viewBox="0 0 28 30" fill="none" xmlns="http://www.w3.org/2000/svg">
<path d="M14 25C12.1875 25 10.5104 24.5521 8.96875 23.6562C7.44792 22.7604 6.23958 21.5521 5.34375 20.0312C4.44792 18.4896 4 16.8125 4 15C4 13.1875 4.44792 11.5104 5.34375 9.96875C6.23958 8.42708 7.44792 7.21875 8.96875 6.34375C10.4896 5.44792 12.1667 5 14 5C15.3542 5 16.6354 5.26042 17.8438 5.78125C19.0521 6.28125 20.1146 6.98958 21.0313 7.90625L24.875 11.5937L23.125 13.4062L19.2813 9.71875C18.5313 8.98958 17.7292 8.4375 16.875 8.0625C16.0208 7.6875 15.0625 7.5 14 7.5C12.5833 7.5 11.3021 7.82292 10.1563 8.46875C9.01042 9.11458 8.11458 10.0104 7.46875 11.1562C6.82292 12.3021 6.5 13.5833 6.5 15C6.5 16.4167 6.82292 17.6979 7.46875 18.8437C8.11458 19.9896 9.01042 20.8854 10.1563 21.5312C11.3021 22.1771 12.5833 22.5 14 22.5C14.6667 22.5 15.2813 22.4271 15.8438 22.2812C16.4271 22.1354 16.9688 21.9271 17.4688 21.6562C17.9688 21.3854 18.4583 21.0521 18.9375 20.6562L19.3125 20.2812C19.6875 19.9271 20.0938 19.8333 20.5313 20C20.9688 20.1458 21.25 20.4479 21.375 20.9062C21.5208 21.3437 21.4167 21.7396 21.0625 22.0937C20.4375 22.6979 19.7604 23.2187 19.0313 23.6562C18.3021 24.0937 17.5104 24.4271 16.6563 24.6562C15.8229 24.8854 14.9375 25 14 25ZM19 13.75C18.4792 13.75 18.1146 13.5417 17.9063 13.125C17.7188 12.7083 17.7188 12.2917 17.9063 11.875C18.1146 11.4583 18.4792 11.25 19 11.25H22.75V7.5C22.75 6.97917 22.9583 6.625 23.375 6.4375C23.7917 6.22917 24.2083 6.22917 24.625 6.4375C25.0417 6.625 25.25 6.97917 25.25 7.5V12.4687C25.25 12.8437 25.125 13.1562 24.875 13.4062C24.6458 13.6354 24.3438 13.75 23.9688 13.75H19Z" fill="#6B5743"/>
</svg>
