<svg width="18" height="18" viewBox="0 0 18 18" fill="none" xmlns="http://www.w3.org/2000/svg">
<rect width="18" height="18" rx="3" fill="#6B5743"/>
<path d="M3.636 3.125C3.836 3.025 3.966 2.985 4.026 3.005C4.086 3.005 4.296 3.085 4.656 3.245C4.976 3.385 5.176 3.515 5.256 3.635C5.336 3.735 5.486 4.065 5.706 4.625C5.886 5.125 6.056 5.485 6.216 5.705C6.336 5.925 6.416 6.125 6.456 6.305C6.516 6.585 6.686 6.985 6.966 7.505C7.246 8.005 7.496 8.355 7.716 8.555C7.916 8.735 8.046 8.885 8.106 9.005C8.186 9.125 8.286 9.385 8.406 9.785C8.526 10.185 8.626 10.455 8.706 10.595C8.786 10.715 8.876 10.775 8.976 10.775C9.056 10.775 9.146 10.685 9.246 10.505C9.346 10.305 9.396 10.125 9.396 9.965C9.396 9.745 9.466 9.485 9.606 9.185C9.766 8.865 9.896 8.455 9.996 7.955C10.136 7.455 10.266 7.085 10.386 6.845C10.506 6.605 10.566 6.455 10.566 6.395C10.566 6.315 10.666 6.085 10.866 5.705C11.066 5.305 11.236 4.895 11.376 4.475C11.556 3.915 11.846 3.525 12.246 3.305C12.646 3.065 13.016 3.055 13.356 3.275C13.716 3.475 13.926 3.865 13.986 4.445C14.006 4.705 13.946 5.025 13.806 5.405C13.666 5.785 13.506 6.075 13.326 6.275C13.186 6.415 13.116 6.605 13.116 6.845C13.136 7.085 13.116 7.245 13.056 7.325C12.996 7.385 12.946 7.545 12.906 7.805C12.766 8.545 12.576 9.085 12.336 9.425C12.176 9.685 12.086 9.965 12.066 10.265C12.066 10.525 12.066 10.725 12.066 10.865C12.046 10.965 11.976 11.085 11.856 11.225C11.716 11.405 11.596 11.765 11.496 12.305C11.376 13.025 11.166 13.485 10.866 13.685C10.586 13.885 10.016 13.965 9.156 13.925C8.556 13.905 8.156 13.855 7.956 13.775C7.756 13.695 7.586 13.525 7.446 13.265C7.326 13.045 7.176 12.875 6.996 12.755C6.856 12.655 6.576 12.215 6.156 11.435C5.756 10.655 5.556 10.195 5.556 10.055C5.556 9.975 5.466 9.775 5.286 9.455C5.126 9.115 4.976 8.865 4.836 8.705C4.656 8.485 4.556 8.235 4.536 7.955C4.496 7.695 4.426 7.475 4.326 7.295C4.206 7.095 4.126 6.875 4.086 6.635C4.026 6.395 3.916 6.185 3.756 6.005C3.596 5.825 3.436 5.545 3.276 5.165C3.136 4.785 3.046 4.445 3.006 4.145C2.986 3.885 3.016 3.685 3.096 3.545C3.196 3.405 3.376 3.265 3.636 3.125Z" fill="white"/>
</svg>
